<?xml version="1.0" encoding="utf-8"?>
<!-- Generator: Adobe Illustrator 18.1.1, SVG Export Plug-In . SVG Version: 6.00 Build 0)  -->
<svg version="1.1" id="appliances-icon" xmlns="http://www.w3.org/2000/svg" xmlns:xlink="http://www.w3.org/1999/xlink" x="0px"
	 y="0px" viewBox="0 0 64 64" enable-background="new 0 0 64 64" xml:space="preserve">
<g>
	<path fill="#E0EBFC" d="M59.3,60.3H19.1c-2.3,0-4.2-1.9-4.2-4.2V4.7c0-2.3,1.9-4.2,4.2-4.2h40.1c2.3,0,4.2,1.9,4.2,4.2v51.4
		C63.5,58.4,61.6,60.3,59.3,60.3z"/>
	<path fill="#6BDDDD" d="M56.6,35.1c0,9.6-7.8,17.3-17.4,17.3c-9.6,0-17.4-7.8-17.4-17.3c0-9.6,7.8-17.3,17.4-17.3
		C48.8,17.8,56.6,25.6,56.6,35.1z"/>
	<path fill="#A4C9FF" d="M39.2,48.6c-7.4,0-13.4-6-13.4-13.4c0-7.4,6-13.4,13.4-13.4c7.4,0,13.4,6,13.4,13.4
		C52.6,42.5,46.6,48.6,39.2,48.6z"/>
	<path fill="#4671C6" d="M50.1,38.4c-1.3,0-2.4-0.5-3.3-1.3c-0.2-0.2-0.5-0.2-0.7,0c-0.9,0.8-2,1.3-3.3,1.3c-1.2,0-2.2-0.4-3.1-1.1
		c-0.2-0.2-0.5-0.2-0.7,0c-0.8,0.7-1.9,1.1-3.1,1.1c-1.3,0-2.4-0.5-3.3-1.3c-0.2-0.2-0.5-0.2-0.7,0c-0.9,0.8-2,1.3-3.3,1.3
		c-0.5,0-1.1-0.1-1.6-0.3c-0.4-0.1-0.8,0.2-0.7,0.7c1.6,5.6,6.8,9.8,12.9,9.8c6.1,0,11.2-4.1,12.9-9.7c0.1-0.4-0.2-0.8-0.6-0.7
		C51,38.3,50.6,38.4,50.1,38.4z"/>
	<path fill="#A4C9FF" d="M14.9,4.7v7.6h48.5V4.7c0-2.3-1.9-4.2-4.2-4.2H19.1C16.8,0.5,14.9,2.4,14.9,4.7z"/>
	<path fill="#A4C9FF" d="M59.3,0.5H31.7v11.8h31.8V4.7C63.5,2.4,61.6,0.5,59.3,0.5z"/>
	<path fill="#F9A7A7" d="M59.6,10H47.1c-0.6,0-1-0.5-1-1v-5c0-0.6,0.5-1,1-1h12.6c0.6,0,1,0.5,1,1v5C60.7,9.5,60.2,10,59.6,10z"/>
	<path fill="#4671C6" d="M27.1,9.7H20c-1.2,0-2.1-0.9-2.1-2.1V5.4h11.2v2.2C29.2,8.8,28.3,9.7,27.1,9.7z"/>
	<path fill="#F9CFCF" d="M28.4,6.4h-9.7c-0.4,0-0.8-0.4-0.8-0.8V4.1c0-0.4,0.4-0.8,0.8-0.8h9.7c0.4,0,0.8,0.4,0.8,0.8v1.6
		C29.2,6.1,28.8,6.4,28.4,6.4z"/>
	<path fill="#4671C6" d="M44,6.8c0,1.3-1,2.3-2.3,2.3c-1.3,0-2.3-1-2.3-2.3c0-1.3,1-2.3,2.3-2.3C43,4.4,44,5.5,44,6.8z"/>
	<path fill="#E0EBFC" d="M41.7,7.1c-0.3,0-0.5-0.2-0.5-0.5V4.3c0-0.3,0.2-0.5,0.5-0.5c0.3,0,0.5,0.2,0.5,0.5v2.3
		C42.2,6.9,42,7.1,41.7,7.1z"/>
	<path fill="#4671C6" d="M38.1,6.8c0,1.3-1,2.3-2.3,2.3c-1.3,0-2.3-1-2.3-2.3c0-1.3,1-2.3,2.3-2.3C37,4.4,38.1,5.5,38.1,6.8z"/>
	<path fill="#E0EBFC" d="M35.7,7.1c-0.3,0-0.5-0.2-0.5-0.5V4.3c0-0.3,0.2-0.5,0.5-0.5c0.3,0,0.5,0.2,0.5,0.5v2.3
		C36.3,6.9,36,7.1,35.7,7.1z"/>
	<path fill="#3762CC" d="M39.2,53c-9.9,0-17.9-8-17.9-17.9c0-9.9,8-17.9,17.9-17.9c9.9,0,17.9,8,17.9,17.9C57.1,45,49.1,53,39.2,53z
		 M39.2,18.3c-9.3,0-16.8,7.5-16.8,16.8c0,9.3,7.6,16.8,16.8,16.8C48.5,52,56,44.4,56,35.1C56,25.9,48.5,18.3,39.2,18.3z"/>
	<path fill="#3762CC" d="M39.2,49.1c-7.7,0-13.9-6.3-13.9-13.9c0-7.7,6.3-13.9,13.9-13.9c7.7,0,13.9,6.3,13.9,13.9
		C53.2,42.8,46.9,49.1,39.2,49.1z M39.2,22.3c-7.1,0-12.9,5.8-12.9,12.9c0,7.1,5.8,12.9,12.9,12.9c7.1,0,12.9-5.8,12.9-12.9
		C52.1,28,46.3,22.3,39.2,22.3z"/>
	<path fill="#6BDDDD" d="M55.4,29h-6c-1.4,0-2.6,1.2-2.6,2.6v7.1c0,1.4,1.2,2.6,2.6,2.6h6c0.7-1.9,1.1-4,1.1-6.2
		C56.6,33,56.2,30.9,55.4,29z M52.2,38.7H50c-0.3,0-0.5-0.2-0.5-0.5v-6c0-0.3,0.2-0.5,0.5-0.5h2.1c0.3,1.1,0.5,2.3,0.5,3.5
		C52.6,36.4,52.5,37.6,52.2,38.7z"/>
	<path fill="#3762CC" d="M55.4,41.8h-6c-1.7,0-3.1-1.4-3.1-3.1v-7.1c0-1.7,1.4-3.1,3.1-3.1h6c0.2,0,0.4,0.1,0.5,0.3
		c0.8,2,1.2,4.2,1.2,6.3c0,2.2-0.4,4.3-1.2,6.3C55.8,41.7,55.6,41.8,55.4,41.8z M49.5,29.5c-1.2,0-2.1,0.9-2.1,2.1v7.1
		c0,1.2,0.9,2.1,2.1,2.1h5.6c0.6-1.8,1-3.7,1-5.6c0-1.9-0.3-3.8-1-5.6H49.5z M52.1,39.2H50c-0.6,0-1-0.5-1-1v-6c0-0.6,0.5-1,1-1h2.1
		c0.2,0,0.4,0.2,0.5,0.4c0.3,1.2,0.5,2.4,0.5,3.7c0,1.2-0.2,2.5-0.5,3.7C52.6,39.1,52.4,39.2,52.1,39.2z M50,32.1v6h1.7
		c0.2-1,0.4-2,0.4-3c0-1-0.1-2-0.4-3H50z"/>
	<path fill="#3762CC" d="M59.3,60.8H19.1c-2.6,0-4.7-2.1-4.7-4.7V4.7c0-2.6,2.1-4.7,4.7-4.7h40.1C61.9,0,64,2.1,64,4.7v51.4
		C64,58.7,61.9,60.8,59.3,60.8z M19.1,1c-2,0-3.7,1.6-3.7,3.7v51.4c0,2,1.6,3.7,3.7,3.7h40.1c2,0,3.7-1.6,3.7-3.7V4.7
		c0-2-1.6-3.7-3.7-3.7H19.1z"/>
	<path fill="#3762CC" d="M63.5,12.9H14.9c-0.3,0-0.5-0.2-0.5-0.5V4.7c0-2.6,2.1-4.7,4.7-4.7h40.1C61.9,0,64,2.1,64,4.7v7.6
		C64,12.6,63.8,12.9,63.5,12.9z M15.5,11.8H63V4.7c0-2-1.6-3.7-3.7-3.7H19.1c-2,0-3.7,1.6-3.7,3.7V11.8z"/>
	<path fill="#E0EBFC" d="M36.1,28.6c-0.4,0.6-0.6,1.3-0.6,2.1c0,2.1,1.6,3.9,3.5,4c2.2,0.1,3.9-1.7,3.9-3.9c0-0.8-0.2-1.6-0.6-2.2
		l0,0l-2.8-4.4c-0.1-0.2-0.5-0.2-0.6,0L36.1,28.6C36.1,28.6,36.1,28.6,36.1,28.6L36.1,28.6z"/>
	<path fill="#FFEA92" d="M14.1,46.1h2.3L13,42.9c-0.5-0.5-1.1-0.7-1.8-0.7H8c-0.6,0-1.2,0.2-1.7,0.6l-3,2.6
		c-0.2,0.2-0.4,0.4-0.5,0.7H14.1z"/>
	<path fill="#6BDDDD" d="M14.1,46.1h10.4v-1.7c0-0.9-0.5-1.8-1.3-2.3l-2.9-1.7c-0.4-0.2-0.9-0.4-1.3-0.4h-5.9c-0.8,0-1.6,0.4-2.1,1
		l-3.3,4.4c-0.1,0.2-0.2,0.4-0.3,0.6H14.1z"/>
	<path fill="#F9A7A7" d="M14.1,46.1h10.1l-1.5-2.2c-0.5-0.7-1.3-1.2-2.2-1.2h-1.1c-0.4,0-0.9,0.1-1.3,0.3l-5.6,3L14.1,46.1
		L14.1,46.1z"/>
	<path fill="#4671C6" d="M14.1,46.1H1.3c-0.5,0-0.8,0.4-0.8,0.8l1.1,13.4c0.1,1.8,1.9,3.2,3.9,3.2h17.1c2.1,0,3.8-1.4,3.9-3.2
		l1.1-13.4c0-0.5-0.3-0.8-0.8-0.8H14.1z"/>
	<path fill="#3762CC" d="M22.7,64H5.5c-2.3,0-4.3-1.6-4.4-3.6L0,47c0-0.4,0.1-0.7,0.3-1c0.2-0.3,0.6-0.4,1-0.4h25.6
		c0.4,0,0.7,0.2,1,0.4c0.2,0.3,0.4,0.6,0.3,1l-1.1,13.4C27,62.4,25,64,22.7,64z M1.3,46.6c-0.1,0-0.2,0.1-0.2,0.1
		c0,0-0.1,0.1-0.1,0.2l1.1,13.4C2.2,61.8,3.7,63,5.5,63h17.1c1.8,0,3.3-1.2,3.4-2.7l1.1-13.4c0-0.1,0-0.2-0.1-0.2
		c0,0-0.1-0.1-0.2-0.1H1.3z"/>
	<path fill="#3762CC" d="M24.5,46.6H2.7c-0.2,0-0.4-0.1-0.5-0.3c-0.1-0.2-0.1-0.4,0-0.5c0.2-0.3,0.4-0.6,0.7-0.8l3-2.6
		c0.6-0.5,1.3-0.8,2.1-0.8H10l0.6-0.8c0.6-0.8,1.5-1.2,2.5-1.2h5.9c0.6,0,1.1,0.1,1.6,0.4l2.9,1.7c1,0.6,1.6,1.6,1.6,2.7v1.7
		C25.1,46.4,24.8,46.6,24.5,46.6z M3.9,45.5H24v-1.2c0-0.7-0.4-1.4-1-1.8l-2.9-1.7c-0.3-0.2-0.7-0.3-1.1-0.3h-5.9
		c-0.7,0-1.3,0.3-1.7,0.8l-0.8,1.1c-0.1,0.1-0.3,0.2-0.4,0.2H8c-0.5,0-1,0.2-1.4,0.5L3.9,45.5z"/>
</g>
</svg>
