<?xml version="1.0" encoding="utf-8"?>
<!-- Generator: Adobe Illustrator 18.1.1, SVG Export Plug-In . SVG Version: 6.00 Build 0)  -->
<svg version="1.1" id="cart-icon" xmlns="http://www.w3.org/2000/svg" xmlns:xlink="http://www.w3.org/1999/xlink" x="0px" y="0px"
	 viewBox="0 0 64 64" enable-background="new 0 0 64 64" xml:space="preserve">
<g>
	<path d="M34,40v-8c0-1.1-0.9-2-2-2s-2,0.9-2,2v8c0,1.1,0.9,2,2,2S34,41.1,34,40z"/>
	<path d="M44,40v-8c0-1.1-0.9-2-2-2s-2,0.9-2,2v8c0,1.1,0.9,2,2,2S44,41.1,44,40z"/>
	<path d="M20,32v8c0,1.1,0.9,2,2,2s2-0.9,2-2v-8c0-1.1-0.9-2-2-2S20,30.9,20,32z"/>
	<path d="M62,16H35.4c-0.7-1.2-2-2-3.4-2c-2.2,0-4,1.8-4,4s1.8,4,4,4c1.5,0,2.8-0.8,3.4-2H62c1.1,0,2-0.9,2-2S63.1,16,62,16z"/>
	<path d="M59.1,24l-4,18.8c-0.4,1.8-2,3.2-3.9,3.2H12.8c-1.9,0-3.5-1.3-3.9-3.2L4.2,22h20.9c-0.7-1.2-1.1-2.5-1.1-4H3
		c-0.9,0-1.8,0.4-2.3,1.1s-0.8,1.6-0.6,2.5l5,22c0.8,3.7,4.1,6.3,7.8,6.3h38.3c3.7,0,7-2.7,7.8-6.3l4.2-19.8C62.8,24,62.4,24,62,24
		H59.1z"/>
</g>
</svg>
