<?xml version="1.0" encoding="utf-8"?>
<!-- Generator: Adobe Illustrator 18.1.1, SVG Export Plug-In . SVG Version: 6.00 Build 0)  -->
<svg version="1.1" id="cart-icon" xmlns="http://www.w3.org/2000/svg" xmlns:xlink="http://www.w3.org/1999/xlink" x="0px" y="0px"
	 viewBox="0 0 64 64" enable-background="new 0 0 64 64" xml:space="preserve">
<g>
	<path d="M20.8,41.2h33.9c0.8,0,1.6-0.5,1.8-1.3l7.5-25.7c0.2-0.6,0-1.1-0.3-1.6c-0.4-0.5-0.9-0.7-1.5-0.7H16.4l-1.3-5.9
		c-0.2-0.8-1-1.4-1.8-1.4H1.9C0.8,4.5,0,5.3,0,6.3c0,1,0.8,1.8,1.9,1.8h9.9L18.5,38c-2,0.8-3.4,2.8-3.4,5c0,3,2.5,5.5,5.6,5.5h33.9
		c1,0,1.9-0.8,1.9-1.8c0-1-0.8-1.8-1.9-1.8H20.8c-1,0-1.9-0.8-1.9-1.8C18.9,42,19.7,41.2,20.8,41.2z"/>
	<path d="M18.9,54c0,3,2.5,5.5,5.5,5.5c3,0,5.5-2.5,5.5-5.5c0-3-2.5-5.5-5.5-5.5C21.3,48.5,18.9,51,18.9,54z"/>
	<path d="M45.3,54c0,3,2.5,5.5,5.5,5.5c3,0,5.5-2.5,5.5-5.5c0-3-2.5-5.5-5.5-5.5C47.7,48.5,45.3,51,45.3,54z"/>
</g>
</svg>
