<?xml version="1.0" encoding="utf-8"?>
<!-- Generator: Adobe Illustrator 18.1.1, SVG Export Plug-In . SVG Version: 6.00 Build 0)  -->
<svg version="1.1" id="compare-icon" xmlns="http://www.w3.org/2000/svg" xmlns:xlink="http://www.w3.org/1999/xlink" x="0px"
	 y="0px" viewBox="0 0 64 64" enable-background="new 0 0 64 64" xml:space="preserve">
<path d="M34.8,44.1c0,4,1.5,7.7,4.3,10.5c2.8,2.8,6.4,4.4,10.3,4.4c3.9,0,7.6-1.5,10.3-4.4c2.8-2.8,4.3-6.5,4.3-10.5
	c0-2.4-0.6-4.8-1.7-6.9l-10-20.8h1.7c0.9,0,1.7-0.8,1.7-1.7v-2.9c0-0.9-0.8-1.7-1.7-1.7H41.3C41,7.3,36.9,5,31.8,5
	c-5.1,0-9.3,2.3-9.6,5.1H9.5c-0.9,0-1.7,0.8-1.7,1.7v2.9c0,0.9,0.8,1.7,1.7,1.7h2.1l-10,20.8C0.6,39.3,0,41.7,0,44.1
	c0,4,1.5,7.7,4.3,10.5C7,57.5,10.7,59,14.6,59c3.9,0,7.6-1.5,10.3-4.4c2.8-2.8,4.3-6.5,4.3-10.5c0-2.4-0.6-4.8-1.7-6.9l-10-20.8
	h28.8l-10,20.8C35.4,39.3,34.8,41.7,34.8,44.1z M23.9,39.1L23.9,39.1c0.8,1.6,1.2,3.3,1.2,5.1H4.1c0-1.8,0.4-3.4,1.2-5l0,0l9.3-19.5
	L23.9,39.1z M40.1,39.1L40.1,39.1l9.3-19.5l9.3,19.5l0,0.1c0.8,1.6,1.2,3.2,1.2,5H38.9C38.9,42.4,39.3,40.7,40.1,39.1z"/>
</svg>
