<?xml version="1.0" encoding="utf-8"?>
<!-- Generator: Adobe Illustrator 18.1.1, SVG Export Plug-In . SVG Version: 6.00 Build 0)  -->
<svg version="1.1" id="delivery-icon" xmlns="http://www.w3.org/2000/svg" xmlns:xlink="http://www.w3.org/1999/xlink" x="0px"
	 y="0px" viewBox="0 0 64 64" enable-background="new 0 0 64 64" xml:space="preserve">
<g>
	<path fill="#FF931E" d="M0.1,50.6L0,21.2c0-1.4,1.5-2.4,2.8-1.9l26.6,11.4c0.7,0.3,1.2,1,1.2,1.8L30.6,62c0,1.4-1.5,2.4-2.8,1.9
		L1.3,52.4C0.5,52.1,0.1,51.4,0.1,50.6z"/>
	<path fill="#FFFFFF" d="M63.9,21c0-1.2-0.9-2-2-2c-0.3,0-0.5,0.1-0.8,0.2L34.6,30.8c-0.7,0.3-1.2,1-1.2,1.8L33.5,62
		c0,1.2,0.9,2,2,2c0.3,0,0.5-0.1,0.8-0.2l26.5-11.6c0.7-0.3,1.2-1,1.2-1.8L63.9,21z M36.5,60.5l-0.1-27.2l24.5-10.7L61,49.8
		L36.5,60.5z"/>
	<path fill="#FFFFFF" d="M60.6,12.6l-28-12.4C32.3,0.1,32.1,0,31.8,0c-0.3,0-0.6,0.1-0.8,0.2L3.1,12.7c-1.6,0.7-1.6,3,0,3.7l28,12.4
		c0.3,0.1,0.5,0.2,0.8,0.2c0.3,0,0.6-0.1,0.8-0.2l27.9-12.5C62.2,15.6,62.1,13.3,60.6,12.6z M31.9,25.9L6.4,14.5L31.8,3.1l25.5,11.3
		L31.9,25.9z"/>
</g>
</svg>
