<?xml version="1.0" encoding="utf-8"?>
<!-- Generator: Adobe Illustrator 18.1.1, SVG Export Plug-In . SVG Version: 6.00 Build 0)  -->
<svg version="1.1" id="favarites-icon" xmlns="http://www.w3.org/2000/svg" xmlns:xlink="http://www.w3.org/1999/xlink" x="0px"
	 y="0px" viewBox="0 0 64 64" enable-background="new 0 0 64 64" xml:space="preserve">
<path d="M58.8,9.2C55.5,5.9,51,4,46.3,4c-4.7,0-9.2,1.8-12.5,5.2L32,11l-1.8-1.8C26.9,5.9,22.4,4,17.7,4C13,4,8.5,5.8,5.2,9.2
	C1.8,12.5,0,16.9,0,21.6c0,4.7,1.9,9.1,5.2,12.5l25.5,25.4C31,59.8,31.5,60,32,60s0.9-0.2,1.3-0.5l25.5-25.3
	c3.4-3.3,5.2-7.8,5.2-12.5C64,17,62.2,12.5,58.8,9.2z M56.2,31.6L32,55.6L7.8,31.5c-2.7-2.6-4.1-6.2-4.1-9.9c0-3.7,1.5-7.3,4.1-9.9
	c2.6-2.6,6.2-4.1,9.9-4.1c3.8,0,7.3,1.5,10,4.1l3.1,3.1c0.7,0.7,1.9,0.7,2.6,0l3-3c2.7-2.6,6.2-4.1,9.9-4.1c3.7,0,7.3,1.5,9.9,4.1
	c2.7,2.6,4.1,6.2,4.1,9.9C60.4,25.4,58.9,28.9,56.2,31.6z"/>
</svg>
