<?xml version="1.0" encoding="utf-8"?>
<!-- Generator: Adobe Illustrator 18.1.1, SVG Export Plug-In . SVG Version: 6.00 Build 0)  -->
<svg version="1.1" id="for-kids-icon" xmlns="http://www.w3.org/2000/svg" xmlns:xlink="http://www.w3.org/1999/xlink" x="0px"
	 y="0px" viewBox="0 0 64 64" enable-background="new 0 0 64 64" xml:space="preserve">
<g>
	<path fill="#A4C9FF" d="M49.3,43H14.7c-4.4,0-7.9-3.5-7.9-7.9v-20c0-4.4,3.6-7.9,7.9-7.9h34.7c4.4,0,7.9,3.5,7.9,7.9v20
		C57.3,39.4,53.7,43,49.3,43z"/>
	<path fill="#E0EBFC" d="M13.8,31v-12c0-2.6,2.1-4.7,4.8-4.7h26.8c2.6,0,4.8,2.1,4.8,4.7v12c0,2.6-2.1,4.7-4.8,4.7H18.6
		C16,35.8,13.8,33.7,13.8,31z"/>
	<path fill="#E0EBFC" d="M60.6,33.8h-3.4V16.3h3.4c1.6,0,2.9,1.3,2.9,2.9V31C63.5,32.5,62.2,33.8,60.6,33.8z"/>
	<path fill="#3762CC" d="M21.2,28.9L21.2,28.9c-1.2,0-2.1-0.9-2.1-2.1v-3.6c0-1.1,0.9-2.1,2.1-2.1h0c1.1,0,2.1,0.9,2.1,2.1v3.6
		C23.3,28,22.4,28.9,21.2,28.9z"/>
	<path fill="#3762CC" d="M42.8,28.9L42.8,28.9c-1.2,0-2.1-0.9-2.1-2.1v-3.6c0-1.1,0.9-2.1,2.1-2.1h0c1.1,0,2.1,0.9,2.1,2.1v3.6
		C44.8,28,43.9,28.9,42.8,28.9z"/>
	<path fill="#E0EBFC" d="M3.4,16.3h3.4v17.5H3.4c-1.6,0-2.9-1.3-2.9-2.9V19.2C0.5,17.6,1.8,16.3,3.4,16.3z"/>
	<path fill="#F9A7A7" d="M37.4,7.2V5.9c0-3-2.4-5.4-5.4-5.4c-3,0-5.4,2.4-5.4,5.4v1.2H37.4z"/>
	<path fill="#3762CC" d="M49.3,43.5H14.7c-4.7,0-8.5-3.8-8.5-8.4v-20c0-4.7,3.8-8.4,8.5-8.4h34.7c4.7,0,8.5,3.8,8.5,8.4v20
		C57.8,39.7,54,43.5,49.3,43.5z M14.7,7.7c-4.1,0-7.4,3.3-7.4,7.4v20c0,4.1,3.3,7.4,7.4,7.4h34.7c4.1,0,7.4-3.3,7.4-7.4v-20
		c0-4.1-3.3-7.4-7.4-7.4H14.7z"/>
	<path fill="#3762CC" d="M45.4,36.3H18.6c-2.9,0-5.3-2.4-5.3-5.3v-12c0-2.9,2.4-5.3,5.3-5.3h26.8c2.9,0,5.3,2.4,5.3,5.3v12
		C50.7,34,48.3,36.3,45.4,36.3z M18.6,14.8c-2.3,0-4.2,1.9-4.2,4.2v12c0,2.3,1.9,4.2,4.2,4.2h26.8c2.3,0,4.2-1.9,4.2-4.2v-12
		c0-2.3-1.9-4.2-4.2-4.2H18.6z"/>
	<path fill="#3762CC" d="M60.6,34.3h-3.4c-0.3,0-0.5-0.2-0.5-0.5V16.3c0-0.3,0.2-0.5,0.5-0.5h3.4c1.9,0,3.4,1.5,3.4,3.4V31
		C64,32.8,62.5,34.3,60.6,34.3z M57.8,33.3h2.8c1.3,0,2.3-1,2.3-2.3V19.2c0-1.3-1-2.3-2.3-2.3h-2.8V33.3z"/>
	<path fill="#3762CC" d="M6.7,34.3H3.4C1.5,34.3,0,32.8,0,31V19.2c0-1.9,1.5-3.4,3.4-3.4h3.4c0.3,0,0.5,0.2,0.5,0.5v17.5
		C7.3,34.1,7,34.3,6.7,34.3z M3.4,16.8c-1.3,0-2.3,1-2.3,2.3V31c0,1.3,1,2.3,2.3,2.3h2.8V16.8H3.4z"/>
	<path fill="#3762CC" d="M37.4,7.7H26.6c-0.3,0-0.5-0.2-0.5-0.5V5.9C26.1,2.7,28.8,0,32,0c3.2,0,5.9,2.7,5.9,5.9v1.2
		C37.9,7.5,37.7,7.7,37.4,7.7z M27.2,6.6h9.7V5.9C36.8,3.2,34.7,1,32,1s-4.8,2.2-4.8,4.9V6.6z"/>
	<path fill="#A4C9FF" d="M46.3,63.5H17.7c-1.4,0-2.5-1.1-2.5-2.5V49.2c0-3.4,2.8-6.2,6.2-6.2h21.1c3.4,0,6.2,2.8,6.2,6.2V61
		C48.8,62.3,47.7,63.5,46.3,63.5z"/>
	<path fill="#F9A7A7" d="M20.7,55.5v-4.6c0-0.9,0.7-1.6,1.6-1.6h19.5c0.9,0,1.6,0.7,1.6,1.6v4.6c0,0.9-0.7,1.6-1.6,1.6H22.2
		C21.4,57.1,20.7,56.4,20.7,55.5z"/>
	<path fill="#F9CFCF" d="M22.8,54.5V52c0-0.3,0.2-0.5,0.5-0.5h17.4c0.3,0,0.5,0.2,0.5,0.5v2.5c0,0.3-0.2,0.5-0.5,0.5H23.3
		C23,55,22.8,54.8,22.8,54.5z"/>
	<path fill="#E0EBFC" d="M55.1,60.2h-2c-2.4,0-4.3-1.9-4.3-4.3v-4.5c0-2.4,1.9-4.3,4.3-4.3h2c2.4,0,4.3,1.9,4.3,4.3v4.5
		C59.4,58.2,57.5,60.2,55.1,60.2z"/>
	<path fill="#3762CC" d="M46.3,64H17.7c-1.7,0-3-1.4-3-3V49.2c0-1.8,0.7-3.5,2-4.8c1.3-1.3,3-2,4.8-2h21.1c3.7,0,6.7,3,6.7,6.7V61
		C49.3,62.6,47.9,64,46.3,64z M21.4,43.5c-1.5,0-2.9,0.6-4,1.7c-1.1,1.1-1.7,2.5-1.7,4V61c0,1.1,0.9,2,2,2h28.5c1.1,0,2-0.9,2-2
		V49.2c0-3.1-2.6-5.7-5.7-5.7H21.4z"/>
	<path fill="#3762CC" d="M55.1,60.7h-2c-2.7,0-4.8-2.2-4.8-4.8v-4.5c0-2.7,2.2-4.8,4.8-4.8h2c2.7,0,4.8,2.2,4.8,4.8v4.5
		C59.9,58.5,57.8,60.7,55.1,60.7z M53.1,47.5c-2.1,0-3.8,1.7-3.8,3.8v4.5c0,2.1,1.7,3.8,3.8,3.8h2c2.1,0,3.8-1.7,3.8-3.8v-4.5
		c0-2.1-1.7-3.8-3.8-3.8H53.1z"/>
	<path fill="#E0EBFC" d="M10.9,60.2h-2c-2.4,0-4.3-1.9-4.3-4.3v-4.5c0-2.4,1.9-4.3,4.3-4.3h2c2.4,0,4.3,1.9,4.3,4.3v4.5
		C15.2,58.2,13.3,60.2,10.9,60.2z"/>
	<path fill="#3762CC" d="M10.9,60.7h-2c-2.7,0-4.8-2.2-4.8-4.8v-4.5c0-2.7,2.2-4.8,4.8-4.8h2c2.7,0,4.8,2.2,4.8,4.8v4.5
		C15.7,58.5,13.6,60.7,10.9,60.7z M8.9,47.5c-2.1,0-3.8,1.7-3.8,3.8v4.5c0,2.1,1.7,3.8,3.8,3.8h2c2.1,0,3.8-1.7,3.8-3.8v-4.5
		c0-2.1-1.7-3.8-3.8-3.8H8.9z"/>
</g>
</svg>
