<?xml version="1.0" encoding="utf-8"?>
<!-- Generator: Adobe Illustrator 18.1.1, SVG Export Plug-In . SVG Version: 6.00 Build 0)  -->
<svg version="1.1" id="information-icon" xmlns="http://www.w3.org/2000/svg" xmlns:xlink="http://www.w3.org/1999/xlink" x="0px"
	 y="0px" viewBox="0 0 64 64" enable-background="new 0 0 64 64" xml:space="preserve">
<path d="M59.7,15.9C56.8,11,53,7.2,48.1,4.3C43.1,1.4,37.8,0,32,0S20.8,1.4,15.9,4.3C11,7.2,7.2,11,4.3,15.9C1.4,20.8,0,26.2,0,32
	s1.4,11.2,4.3,16.1C7.2,53,11,56.8,15.9,59.7C20.8,62.6,26.2,64,32,64s11.2-1.4,16.1-4.3s8.8-6.7,11.6-11.6S64,37.8,64,32
	C64,26.2,62.6,20.8,59.7,15.9z M26.7,8c0-0.4,0.1-0.7,0.4-1c0.2-0.2,0.6-0.4,1-0.4h8c0.4,0,0.7,0.1,1,0.4c0.2,0.2,0.4,0.6,0.4,1v6.7
	c0,0.4-0.1,0.7-0.4,1c-0.2,0.2-0.6,0.4-1,0.4h-8c-0.4,0-0.7-0.1-1-0.4c-0.2-0.2-0.4-0.6-0.4-1V8z M42.7,52c0,0.4-0.1,0.7-0.4,1
	c-0.2,0.2-0.6,0.4-1,0.4H22.7c-0.4,0-0.7-0.1-1-0.4c-0.2-0.2-0.4-0.6-0.4-1v-6.7c0-0.4,0.1-0.7,0.4-1c0.2-0.2,0.6-0.4,1-0.4h4V30.6
	h-4c-0.4,0-0.7-0.1-1-0.4c-0.2-0.2-0.4-0.6-0.4-1v-6.7c0-0.4,0.1-0.7,0.4-1c0.2-0.2,0.6-0.4,1-0.4H36c0.4,0,0.7,0.1,1,0.4
	c0.2,0.2,0.4,0.6,0.4,1V44h4c0.4,0,0.7,0.1,1,0.4c0.2,0.2,0.4,0.6,0.4,1L42.7,52z"/>
</svg>
