<?xml version="1.0" encoding="utf-8"?>
<!-- Generator: Adobe Illustrator 18.1.1, SVG Export Plug-In . SVG Version: 6.00 Build 0)  -->
<svg version="1.1" id="pay-icon" xmlns="http://www.w3.org/2000/svg" xmlns:xlink="http://www.w3.org/1999/xlink" x="0px" y="0px"
	 viewBox="0 0 64 64" enable-background="new 0 0 64 64" xml:space="preserve">
<g>
	<path fill="#FF931E" d="M61.6,11.9L22.4,3.6c-1.7-0.4-3.3,0.7-3.6,2.4L18,10.7l45.2,9.6l0.7-4.8C64.3,13.8,63.2,12.2,61.6,11.9z"/>
	<path fill="#FFFFFF" d="M45.1,21.3c-0.5-1.7-2.2-2.6-3.8-2.2l-7.4,2.1l-17.5-3.7l-1.9,9.1L2.3,30c-1.7,0.4-2.6,2.2-2.2,3.8
		l6.8,24.5c0.5,1.7,2.2,2.6,3.8,2.2l39-10.8c1.7-0.5,2.6-2.2,2.2-3.8l-1.2-4.2l4.4,0.9c1.7,0.4,3.3-0.7,3.6-2.4l2.8-13l-15.7-3.3
		L45.1,21.3z M49.6,33.7l1-4.6c0.1-0.7,0.8-1.1,1.5-1l4.6,1c0.7,0.1,1.1,0.8,1,1.5l-1,4.6c-0.1,0.7-0.8,1.1-1.5,1l-4.6-1
		C49.9,35.1,49.4,34.4,49.6,33.7z M3,32.4l10.8-3l25.4-7.1l2.7-0.8c0.1,0,0.1,0,0.1,0c0.2,0,0.5,0.1,0.6,0.4l0.3,1.2l1,3.6L3.9,37.9
		l-1.3-4.8C2.5,32.8,2.7,32.5,3,32.4z M49.4,46.4c0.1,0.2,0,0.3-0.1,0.4c-0.1,0.1-0.2,0.2-0.3,0.3l-39,10.8c-0.1,0-0.1,0-0.1,0
		c-0.2,0-0.5-0.1-0.6-0.4l-4-14.3l40.1-11.1l2.4,8.8L49.4,46.4z"/>
	<path fill="#FF931E" d="M16.4,47.4c-0.2-0.7-0.9-1.1-1.6-0.9l-4.5,1.3c-0.7,0.2-1.1,0.9-0.9,1.6l1.3,4.5c0.2,0.7,0.9,1.1,1.6,0.9
		l4.5-1.3c0.7-0.2,1.1-0.9,0.9-1.6L16.4,47.4z"/>
</g>
</svg>
