<?xml version="1.0" encoding="utf-8"?>
<!-- Generator: Adobe Illustrator 18.1.1, SVG Export Plug-In . SVG Version: 6.00 Build 0)  -->
<svg version="1.1" id="reviews-icon" xmlns="http://www.w3.org/2000/svg" xmlns:xlink="http://www.w3.org/1999/xlink" x="0px"
	 y="0px" viewBox="0 0 64 64" enable-background="new 0 0 64 64" xml:space="preserve">
<path d="M57.6,0H6.4C2.9,0,0,2.9,0,6.4L0,64l12.8-12.8h44.8c3.5,0,6.4-2.9,6.4-6.4V6.4C64,2.9,61.1,0,57.6,0z M19.2,38.4h-6.4V32
	h6.4V38.4z M19.2,28.8h-6.4v-6.4h6.4V28.8z M19.2,19.2h-6.4v-6.4h6.4V19.2z M41.6,38.4h-16V32h16V38.4z M51.2,28.8H25.6v-6.4h25.6
	V28.8z M51.2,19.2H25.6v-6.4h25.6V19.2z"/>
</svg>
