<?xml version="1.0" encoding="utf-8"?>
<!-- Generator: Adobe Illustrator 18.1.1, SVG Export Plug-In . SVG Version: 6.00 Build 0)  -->
<svg version="1.1" id="search-icon" xmlns="http://www.w3.org/2000/svg" xmlns:xlink="http://www.w3.org/1999/xlink" x="0px"
	 y="0px" viewBox="0 0 64 64" enable-background="new 0 0 64 64" xml:space="preserve">
<path d="M63.2,59.5L47.8,44.1c3.8-4.6,6.1-10.6,6.1-17.1c0-14.9-12.1-27-27-27C12.1,0,0,12.1,0,27s12.1,27,27,27
	c6.5,0,12.4-2.3,17.1-6.1l15.4,15.4c1,1,2.7,1,3.8,0C64.3,62.2,64.3,60.5,63.2,59.5z M27,48.6C15,48.6,5.4,38.9,5.4,27
	S15,5.4,27,5.4c11.9,0,21.6,9.7,21.6,21.6S38.9,48.6,27,48.6z"/>
</svg>
