<?xml version="1.0" encoding="utf-8"?>
<!-- Generator: Adobe Illustrator 18.1.1, SVG Export Plug-In . SVG Version: 6.00 Build 0)  -->
<svg version="1.1" id="security-icon" xmlns="http://www.w3.org/2000/svg" xmlns:xlink="http://www.w3.org/1999/xlink" x="0px"
	 y="0px" viewBox="0 0 64 64" enable-background="new 0 0 64 64" xml:space="preserve">
<path fill="#FF931E" d="M32,19.8c-6.9,0-12.5,5.5-12.5,12.2c0,6.7,5.6,12.2,12.5,12.2c6.9,0,12.5-5.5,12.5-12.2
	C44.5,25.3,38.9,19.8,32,19.8z M39.4,29.7l-9,8.7c-0.4,0.4-0.9,0.5-1.4,0.5c-0.5,0-1-0.2-1.4-0.5l-3.4-3.3c-0.8-0.7-0.8-1.9,0-2.7
	c0.8-0.7,2-0.7,2.7,0l2.1,2l7.6-7.4c0.8-0.7,2-0.7,2.7,0C40.2,27.8,40.2,29,39.4,29.7z"/>
<path fill="#FFFFFF" d="M59.9,17.4L59.9,17.4c0-0.7-0.1-1.3-0.1-2c-0.1-3.5-2.9-6.5-6.6-6.7c-7.6-0.4-13.4-2.8-18.4-7.6l0,0
	c-1.6-1.5-4.1-1.5-5.7,0l-0.1,0c-5,4.8-10.8,7.2-18.4,7.6c-3.6,0.2-6.5,3.1-6.6,6.6c0,0.7,0,1.4-0.1,2v0.1
	c-0.1,7.5-0.3,16.8,2.9,25.3c1.8,4.7,4.4,8.7,8,12c4,3.8,9.2,6.8,15.5,9c0.2,0.1,0.4,0.1,0.6,0.2C31.4,64,31.7,64,32,64
	c0.3,0,0.6,0,0.9-0.1c0.2,0,0.4-0.1,0.6-0.2c6.3-2.2,11.5-5.2,15.5-9c3.5-3.3,6.2-7.4,8-12.1C60.3,34.2,60.1,24.9,59.9,17.4z M32,48
	c-9,0-16.4-7.2-16.4-16s7.3-16,16.4-16c9,0,16.4,7.2,16.4,16S41,48,32,48z"/>
</svg>
