<svg class="svg-icon-lib" xmlns="http://www.w3.org/2000/svg">
<symbol id="appliances-icon" viewBox="0 0 64 64"><title>appliances-icon icon</title><path fill="#E0EBFC" d="M59.3 60.3H19.1c-2.3 0-4.2-1.9-4.2-4.2V4.7c0-2.3 1.9-4.2 4.2-4.2h40.1c2.3 0 4.2 1.9 4.2 4.2v51.4c.1 2.3-1.8 4.2-4.1 4.2z"/><path fill="#6BDDDD" d="M56.6 35.1c0 9.6-7.8 17.3-17.4 17.3-9.6 0-17.4-7.8-17.4-17.3 0-9.6 7.8-17.3 17.4-17.3 9.6 0 17.4 7.8 17.4 17.3z"/><path fill="#A4C9FF" d="M39.2 48.6c-7.4 0-13.4-6-13.4-13.4s6-13.4 13.4-13.4 13.4 6 13.4 13.4c0 7.3-6 13.4-13.4 13.4z"/><path fill="#4671C6" d="M50.1 38.4c-1.3 0-2.4-.5-3.3-1.3-.2-.2-.5-.2-.7 0-.9.8-2 1.3-3.3 1.3-1.2 0-2.2-.4-3.1-1.1-.2-.2-.5-.2-.7 0-.8.7-1.9 1.1-3.1 1.1-1.3 0-2.4-.5-3.3-1.3-.2-.2-.5-.2-.7 0-.9.8-2 1.3-3.3 1.3-.5 0-1.1-.1-1.6-.3-.4-.1-.8.2-.7.7 1.6 5.6 6.8 9.8 12.9 9.8 6.1 0 11.2-4.1 12.9-9.7.1-.4-.2-.8-.6-.7-.5.1-.9.2-1.4.2z"/><path fill="#A4C9FF" d="M14.9 4.7v7.6h48.5V4.7c0-2.3-1.9-4.2-4.2-4.2H19.1c-2.3 0-4.2 1.9-4.2 4.2z"/><path fill="#A4C9FF" d="M59.3.5H31.7v11.8h31.8V4.7c0-2.3-1.9-4.2-4.2-4.2z"/><path fill="#F9A7A7" d="M59.6 10H47.1c-.6 0-1-.5-1-1V4c0-.6.5-1 1-1h12.6c.6 0 1 .5 1 1v5c0 .5-.5 1-1.1 1z"/><path fill="#4671C6" d="M27.1 9.7H20c-1.2 0-2.1-.9-2.1-2.1V5.4h11.2v2.2c.1 1.2-.8 2.1-2 2.1z"/><path fill="#F9CFCF" d="M28.4 6.4h-9.7c-.4 0-.8-.4-.8-.8V4.1c0-.4.4-.8.8-.8h9.7c.4 0 .8.4.8.8v1.6c0 .4-.4.7-.8.7z"/><path fill="#4671C6" d="M44 6.8c0 1.3-1 2.3-2.3 2.3-1.3 0-2.3-1-2.3-2.3 0-1.3 1-2.3 2.3-2.3 1.3-.1 2.3 1 2.3 2.3z"/><path fill="#E0EBFC" d="M41.7 7.1c-.3 0-.5-.2-.5-.5V4.3c0-.3.2-.5.5-.5s.5.2.5.5v2.3c0 .3-.2.5-.5.5z"/><path fill="#4671C6" d="M38.1 6.8c0 1.3-1 2.3-2.3 2.3-1.3 0-2.3-1-2.3-2.3 0-1.3 1-2.3 2.3-2.3 1.2-.1 2.3 1 2.3 2.3z"/><path fill="#E0EBFC" d="M35.7 7.1c-.3 0-.5-.2-.5-.5V4.3c0-.3.2-.5.5-.5s.5.2.5.5v2.3c.1.3-.2.5-.5.5z"/><path fill="#3762CC" d="M39.2 53c-9.9 0-17.9-8-17.9-17.9 0-9.9 8-17.9 17.9-17.9 9.9 0 17.9 8 17.9 17.9 0 9.9-8 17.9-17.9 17.9zm0-34.7c-9.3 0-16.8 7.5-16.8 16.8S30 51.9 39.2 51.9C48.5 52 56 44.4 56 35.1c0-9.2-7.5-16.8-16.8-16.8z"/><path fill="#3762CC" d="M39.2 49.1c-7.7 0-13.9-6.3-13.9-13.9 0-7.7 6.3-13.9 13.9-13.9 7.7 0 13.9 6.3 13.9 13.9.1 7.6-6.2 13.9-13.9 13.9zm0-26.8c-7.1 0-12.9 5.8-12.9 12.9 0 7.1 5.8 12.9 12.9 12.9 7.1 0 12.9-5.8 12.9-12.9 0-7.2-5.8-12.9-12.9-12.9z"/><path fill="#6BDDDD" d="M55.4 29h-6c-1.4 0-2.6 1.2-2.6 2.6v7.1c0 1.4 1.2 2.6 2.6 2.6h6c.7-1.9 1.1-4 1.1-6.2.1-2.1-.3-4.2-1.1-6.1zm-3.2 9.7H50c-.3 0-.5-.2-.5-.5v-6c0-.3.2-.5.5-.5h2.1c.3 1.1.5 2.3.5 3.5 0 1.2-.1 2.4-.4 3.5z"/><path fill="#3762CC" d="M55.4 41.8h-6c-1.7 0-3.1-1.4-3.1-3.1v-7.1c0-1.7 1.4-3.1 3.1-3.1h6c.2 0 .4.1.5.3.8 2 1.2 4.2 1.2 6.3 0 2.2-.4 4.3-1.2 6.3-.1.3-.3.4-.5.4zm-5.9-12.3c-1.2 0-2.1.9-2.1 2.1v7.1c0 1.2.9 2.1 2.1 2.1h5.6c.6-1.8 1-3.7 1-5.6 0-1.9-.3-3.8-1-5.6h-5.6zm2.6 9.7H50c-.6 0-1-.5-1-1v-6c0-.6.5-1 1-1h2.1c.2 0 .4.2.5.4.3 1.2.5 2.4.5 3.7 0 1.2-.2 2.5-.5 3.7 0 .1-.2.2-.5.2zM50 32.1v6h1.7c.2-1 .4-2 .4-3s-.1-2-.4-3H50z"/><path fill="#3762CC" d="M59.3 60.8H19.1c-2.6 0-4.7-2.1-4.7-4.7V4.7c0-2.6 2.1-4.7 4.7-4.7h40.1C61.9 0 64 2.1 64 4.7v51.4c0 2.6-2.1 4.7-4.7 4.7zM19.1 1c-2 0-3.7 1.6-3.7 3.7v51.4c0 2 1.6 3.7 3.7 3.7h40.1c2 0 3.7-1.6 3.7-3.7V4.7c0-2-1.6-3.7-3.7-3.7H19.1z"/><path fill="#3762CC" d="M63.5 12.9H14.9c-.3 0-.5-.2-.5-.5V4.7c0-2.6 2.1-4.7 4.7-4.7h40.1C61.9 0 64 2.1 64 4.7v7.6c0 .3-.2.6-.5.6zm-48-1.1H63V4.7c0-2-1.6-3.7-3.7-3.7H19.1c-2 0-3.7 1.6-3.7 3.7v7.1z"/><path fill="#E0EBFC" d="M36.1 28.6c-.4.6-.6 1.3-.6 2.1 0 2.1 1.6 3.9 3.5 4 2.2.1 3.9-1.7 3.9-3.9 0-.8-.2-1.6-.6-2.2l-2.8-4.4c-.1-.2-.5-.2-.6 0l-2.8 4.4z"/><path fill="#FFEA92" d="M14.1 46.1h2.3L13 42.9c-.5-.5-1.1-.7-1.8-.7H8c-.6 0-1.2.2-1.7.6l-3 2.6c-.2.2-.4.4-.5.7h11.3z"/><path fill="#6BDDDD" d="M14.1 46.1h10.4v-1.7c0-.9-.5-1.8-1.3-2.3l-2.9-1.7c-.4-.2-.9-.4-1.3-.4h-5.9c-.8 0-1.6.4-2.1 1l-3.3 4.4-.3.6h6.7z"/><path fill="#F9A7A7" d="M14.1 46.1h10.1l-1.5-2.2c-.5-.7-1.3-1.2-2.2-1.2h-1.1c-.4 0-.9.1-1.3.3l-5.6 3 1.6.1z"/><path fill="#4671C6" d="M14.1 46.1H1.3c-.5 0-.8.4-.8.8l1.1 13.4c.1 1.8 1.9 3.2 3.9 3.2h17.1c2.1 0 3.8-1.4 3.9-3.2l1.1-13.4c0-.5-.3-.8-.8-.8H14.1z"/><path fill="#3762CC" d="M22.7 64H5.5c-2.3 0-4.3-1.6-4.4-3.6L0 47c0-.4.1-.7.3-1 .2-.3.6-.4 1-.4h25.6c.4 0 .7.2 1 .4.2.3.4.6.3 1l-1.1 13.4c-.1 2-2.1 3.6-4.4 3.6zM1.3 46.6c-.1 0-.2.1-.2.1s-.1.1-.1.2l1.1 13.4c.1 1.5 1.6 2.7 3.4 2.7h17.1c1.8 0 3.3-1.2 3.4-2.7l1.1-13.4c0-.1 0-.2-.1-.2 0 0-.1-.1-.2-.1H1.3z"/><path fill="#3762CC" d="M24.5 46.6H2.7c-.2 0-.4-.1-.5-.3-.1-.2-.1-.4 0-.5.2-.3.4-.6.7-.8l3-2.6c.6-.5 1.3-.8 2.1-.8h2l.6-.8c.6-.8 1.5-1.2 2.5-1.2H19c.6 0 1.1.1 1.6.4l2.9 1.7c1 .6 1.6 1.6 1.6 2.7v1.7c0 .3-.3.5-.6.5zM3.9 45.5H24v-1.2c0-.7-.4-1.4-1-1.8l-2.9-1.7c-.3-.2-.7-.3-1.1-.3h-5.9c-.7 0-1.3.3-1.7.8l-.8 1.1c-.1.1-.3.2-.4.2H8c-.5 0-1 .2-1.4.5l-2.7 2.4z"/></symbol>
<symbol id="arrow-icon" viewBox="0 0 64 64"><title>arrow-icon icon</title><path d="M32 0c17.7 0 32 14.3 32 32S49.7 64 32 64 0 49.7 0 32 14.3 0 32 0zm3.9 50l3-3-15-15 15-15-3-3L18 32l17.9 18z"/></symbol>
<symbol id="basket-icon" viewBox="0 0 64 64"><title>basket-icon icon</title><path d="M34 40v-8c0-1.1-.9-2-2-2s-2 .9-2 2v8c0 1.1.9 2 2 2s2-.9 2-2zM44 40v-8c0-1.1-.9-2-2-2s-2 .9-2 2v8c0 1.1.9 2 2 2s2-.9 2-2zM20 32v8c0 1.1.9 2 2 2s2-.9 2-2v-8c0-1.1-.9-2-2-2s-2 .9-2 2zM62 16H35.4c-.7-1.2-2-2-3.4-2-2.2 0-4 1.8-4 4s1.8 4 4 4c1.5 0 2.8-.8 3.4-2H62c1.1 0 2-.9 2-2s-.9-2-2-2z"/><path d="M59.1 24l-4 18.8c-.4 1.8-2 3.2-3.9 3.2H12.8c-1.9 0-3.5-1.3-3.9-3.2L4.2 22h20.9c-.7-1.2-1.1-2.5-1.1-4H3c-.9 0-1.8.4-2.3 1.1s-.8 1.6-.6 2.5l5 22c.8 3.7 4.1 6.3 7.8 6.3h38.3c3.7 0 7-2.7 7.8-6.3l4.2-19.8c-.4.2-.8.2-1.2.2h-2.9z"/></symbol>
<symbol id="cart-icon" viewBox="0 0 64 64"><title>cart-icon icon</title><path d="M20.8 41.2h33.9c.8 0 1.6-.5 1.8-1.3L64 14.2c.2-.6 0-1.1-.3-1.6-.4-.5-.9-.7-1.5-.7H16.4L15.1 6c-.2-.8-1-1.4-1.8-1.4H1.9C.8 4.5 0 5.3 0 6.3s.8 1.8 1.9 1.8h9.9L18.5 38c-2 .8-3.4 2.8-3.4 5 0 3 2.5 5.5 5.6 5.5h33.9c1 0 1.9-.8 1.9-1.8s-.8-1.8-1.9-1.8H20.8c-1 0-1.9-.8-1.9-1.8 0-1.1.8-1.9 1.9-1.9zM18.9 54c0 3 2.5 5.5 5.5 5.5s5.5-2.5 5.5-5.5-2.5-5.5-5.5-5.5c-3.1 0-5.5 2.5-5.5 5.5zM45.3 54c0 3 2.5 5.5 5.5 5.5s5.5-2.5 5.5-5.5-2.5-5.5-5.5-5.5c-3.1 0-5.5 2.5-5.5 5.5z"/></symbol>
<symbol id="category-icon" viewBox="0 0 64 64"><title>category-icon icon</title><circle fill="#FB8200" cx="12" cy="12" r="12"/><circle fill="#FFF" cx="12" cy="52" r="12"/><circle fill="#FFF" cx="52" cy="12" r="12"/><circle fill="#FFF" cx="52" cy="52" r="12"/></symbol>
<symbol id="compare-icon" viewBox="0 0 64 64"><title>compare-icon icon</title><path d="M34.8 44.1c0 4 1.5 7.7 4.3 10.5S45.5 59 49.4 59c3.9 0 7.6-1.5 10.3-4.4 2.8-2.8 4.3-6.5 4.3-10.5 0-2.4-.6-4.8-1.7-6.9l-10-20.8H54c.9 0 1.7-.8 1.7-1.7v-2.9c0-.9-.8-1.7-1.7-1.7H41.3C41 7.3 36.9 5 31.8 5s-9.3 2.3-9.6 5.1H9.5c-.9 0-1.7.8-1.7 1.7v2.9c0 .9.8 1.7 1.7 1.7h2.1l-10 20.8C.6 39.3 0 41.7 0 44.1c0 4 1.5 7.7 4.3 10.5C7 57.5 10.7 59 14.6 59c3.9 0 7.6-1.5 10.3-4.4 2.8-2.8 4.3-6.5 4.3-10.5 0-2.4-.6-4.8-1.7-6.9l-10-20.8h28.8l-10 20.8c-.9 2.1-1.5 4.5-1.5 6.9zm-10.9-5c.8 1.6 1.2 3.3 1.2 5.1h-21c0-1.8.4-3.4 1.2-5l9.3-19.5 9.3 19.4zm16.2 0l9.3-19.5 9.3 19.5v.1c.8 1.6 1.2 3.2 1.2 5h-21c0-1.8.4-3.5 1.2-5.1z"/></symbol>
<symbol id="delivery-icon" viewBox="0 0 64 64"><title>delivery-icon icon</title><path fill="#FF931E" d="M.1 50.6L0 21.2c0-1.4 1.5-2.4 2.8-1.9l26.6 11.4c.7.3 1.2 1 1.2 1.8V62c0 1.4-1.5 2.4-2.8 1.9L1.3 52.4c-.8-.3-1.2-1-1.2-1.8z"/><path fill="#FFF" d="M63.9 21c0-1.2-.9-2-2-2-.3 0-.5.1-.8.2L34.6 30.8c-.7.3-1.2 1-1.2 1.8l.1 29.4c0 1.2.9 2 2 2 .3 0 .5-.1.8-.2l26.5-11.6c.7-.3 1.2-1 1.2-1.8L63.9 21zM36.5 60.5l-.1-27.2 24.5-10.7.1 27.2-24.5 10.7zM60.6 12.6L32.6.2c-.3-.1-.5-.2-.8-.2-.3 0-.6.1-.8.2L3.1 12.7c-1.6.7-1.6 3 0 3.7l28 12.4c.3.1.5.2.8.2.3 0 .6-.1.8-.2l27.9-12.5c1.6-.7 1.5-3 0-3.7zM31.9 25.9L6.4 14.5 31.8 3.1l25.5 11.3-25.4 11.5z"/></symbol>
<symbol id="favarites-icon" viewBox="0 0 64 64"><title>favarites-icon icon</title><path d="M58.8 9.2C55.5 5.9 51 4 46.3 4s-9.2 1.8-12.5 5.2L32 11l-1.8-1.8C26.9 5.9 22.4 4 17.7 4S8.5 5.8 5.2 9.2C1.8 12.5 0 16.9 0 21.6s1.9 9.1 5.2 12.5l25.5 25.4c.3.3.8.5 1.3.5s.9-.2 1.3-.5l25.5-25.3c3.4-3.3 5.2-7.8 5.2-12.5s-1.8-9.2-5.2-12.5zm-2.6 22.4L32 55.6 7.8 31.5c-2.7-2.6-4.1-6.2-4.1-9.9s1.5-7.3 4.1-9.9c2.6-2.6 6.2-4.1 9.9-4.1 3.8 0 7.3 1.5 10 4.1l3.1 3.1c.7.7 1.9.7 2.6 0l3-3c2.7-2.6 6.2-4.1 9.9-4.1s7.3 1.5 9.9 4.1c2.7 2.6 4.1 6.2 4.1 9.9.1 3.7-1.4 7.2-4.1 9.9z"/></symbol>
<symbol id="favorites-fill-icon" viewBox="0 0 64 64"><title>favorites-fill-icon icon</title><path d="M64 21.5C64 11.8 56.3 4 46.7 4 40.5 4 35 7.3 32 12.3 29 7.3 23.5 4 17.3 4 7.7 4 0 11.8 0 21.5c0 5.2 2.3 9.9 5.9 13.1l24.5 24.7c.4.4 1 .7 1.6.7.6 0 1.2-.2 1.6-.7l24.5-24.8c3.6-3.1 5.9-7.8 5.9-13z"/></symbol>
<symbol id="favorites-icon" viewBox="0 0 64 64"><title>favorites-icon icon</title><path d="M58.8 9.2C55.5 5.9 51 4 46.3 4s-9.2 1.8-12.5 5.2L32 11l-1.8-1.8C26.9 5.9 22.4 4 17.7 4S8.5 5.8 5.2 9.2C1.8 12.5 0 16.9 0 21.6s1.9 9.1 5.2 12.5l25.5 25.4c.3.3.8.5 1.3.5s.9-.2 1.3-.5l25.5-25.3c3.4-3.3 5.2-7.8 5.2-12.5s-1.8-9.2-5.2-12.5zm-2.6 22.4L32 55.6 7.8 31.5c-2.7-2.6-4.1-6.2-4.1-9.9s1.5-7.3 4.1-9.9c2.6-2.6 6.2-4.1 9.9-4.1 3.8 0 7.3 1.5 10 4.1l3.1 3.1c.7.7 1.9.7 2.6 0l3-3c2.7-2.6 6.2-4.1 9.9-4.1s7.3 1.5 9.9 4.1c2.7 2.6 4.1 6.2 4.1 9.9.1 3.7-1.4 7.2-4.1 9.9z"/></symbol>
<symbol id="for-kids-icon" viewBox="0 0 64 64"><title>for-kids-icon icon</title><path fill="#A4C9FF" d="M49.3 43H14.7c-4.4 0-7.9-3.5-7.9-7.9v-20c0-4.4 3.6-7.9 7.9-7.9h34.7c4.4 0 7.9 3.5 7.9 7.9v20c0 4.3-3.6 7.9-8 7.9z"/><path fill="#E0EBFC" d="M13.8 31V19c0-2.6 2.1-4.7 4.8-4.7h26.8c2.6 0 4.8 2.1 4.8 4.7v12c0 2.6-2.1 4.7-4.8 4.7H18.6c-2.6.1-4.8-2-4.8-4.7zM60.6 33.8h-3.4V16.3h3.4c1.6 0 2.9 1.3 2.9 2.9V31c0 1.5-1.3 2.8-2.9 2.8z"/><path fill="#3762CC" d="M21.2 28.9c-1.2 0-2.1-.9-2.1-2.1v-3.6c0-1.1.9-2.1 2.1-2.1 1.1 0 2.1.9 2.1 2.1v3.6c0 1.2-.9 2.1-2.1 2.1zM42.8 28.9c-1.2 0-2.1-.9-2.1-2.1v-3.6c0-1.1.9-2.1 2.1-2.1 1.1 0 2.1.9 2.1 2.1v3.6c-.1 1.2-1 2.1-2.1 2.1z"/><path fill="#E0EBFC" d="M3.4 16.3h3.4v17.5H3.4c-1.6 0-2.9-1.3-2.9-2.9V19.2c0-1.6 1.3-2.9 2.9-2.9z"/><path fill="#F9A7A7" d="M37.4 7.2V5.9c0-3-2.4-5.4-5.4-5.4-3 0-5.4 2.4-5.4 5.4v1.2h10.8z"/><path fill="#3762CC" d="M49.3 43.5H14.7c-4.7 0-8.5-3.8-8.5-8.4v-20c0-4.7 3.8-8.4 8.5-8.4h34.7c4.7 0 8.5 3.8 8.5 8.4v20c-.1 4.6-3.9 8.4-8.6 8.4zM14.7 7.7c-4.1 0-7.4 3.3-7.4 7.4v20c0 4.1 3.3 7.4 7.4 7.4h34.7c4.1 0 7.4-3.3 7.4-7.4v-20c0-4.1-3.3-7.4-7.4-7.4H14.7z"/><path fill="#3762CC" d="M45.4 36.3H18.6c-2.9 0-5.3-2.4-5.3-5.3V19c0-2.9 2.4-5.3 5.3-5.3h26.8c2.9 0 5.3 2.4 5.3 5.3v12c0 3-2.4 5.3-5.3 5.3zM18.6 14.8c-2.3 0-4.2 1.9-4.2 4.2v12c0 2.3 1.9 4.2 4.2 4.2h26.8c2.3 0 4.2-1.9 4.2-4.2V19c0-2.3-1.9-4.2-4.2-4.2H18.6zM60.6 34.3h-3.4c-.3 0-.5-.2-.5-.5V16.3c0-.3.2-.5.5-.5h3.4c1.9 0 3.4 1.5 3.4 3.4V31c0 1.8-1.5 3.3-3.4 3.3zm-2.8-1h2.8c1.3 0 2.3-1 2.3-2.3V19.2c0-1.3-1-2.3-2.3-2.3h-2.8v16.4zM6.7 34.3H3.4C1.5 34.3 0 32.8 0 31V19.2c0-1.9 1.5-3.4 3.4-3.4h3.4c.3 0 .5.2.5.5v17.5c0 .3-.3.5-.6.5zM3.4 16.8c-1.3 0-2.3 1-2.3 2.3V31c0 1.3 1 2.3 2.3 2.3h2.8V16.8H3.4zM37.4 7.7H26.6c-.3 0-.5-.2-.5-.5V5.9C26.1 2.7 28.8 0 32 0s5.9 2.7 5.9 5.9v1.2c0 .4-.2.6-.5.6zM27.2 6.6h9.7v-.7C36.8 3.2 34.7 1 32 1s-4.8 2.2-4.8 4.9v.7z"/><path fill="#A4C9FF" d="M46.3 63.5H17.7c-1.4 0-2.5-1.1-2.5-2.5V49.2c0-3.4 2.8-6.2 6.2-6.2h21.1c3.4 0 6.2 2.8 6.2 6.2V61c.1 1.3-1 2.5-2.4 2.5z"/><path fill="#F9A7A7" d="M20.7 55.5v-4.6c0-.9.7-1.6 1.6-1.6h19.5c.9 0 1.6.7 1.6 1.6v4.6c0 .9-.7 1.6-1.6 1.6H22.2c-.8 0-1.5-.7-1.5-1.6z"/><path fill="#F9CFCF" d="M22.8 54.5V52c0-.3.2-.5.5-.5h17.4c.3 0 .5.2.5.5v2.5c0 .3-.2.5-.5.5H23.3c-.3 0-.5-.2-.5-.5z"/><path fill="#E0EBFC" d="M55.1 60.2h-2c-2.4 0-4.3-1.9-4.3-4.3v-4.5c0-2.4 1.9-4.3 4.3-4.3h2c2.4 0 4.3 1.9 4.3 4.3v4.5c0 2.3-1.9 4.3-4.3 4.3z"/><path fill="#3762CC" d="M46.3 64H17.7c-1.7 0-3-1.4-3-3V49.2c0-1.8.7-3.5 2-4.8 1.3-1.3 3-2 4.8-2h21.1c3.7 0 6.7 3 6.7 6.7V61c0 1.6-1.4 3-3 3zM21.4 43.5c-1.5 0-2.9.6-4 1.7s-1.7 2.5-1.7 4V61c0 1.1.9 2 2 2h28.5c1.1 0 2-.9 2-2V49.2c0-3.1-2.6-5.7-5.7-5.7H21.4z"/><path fill="#3762CC" d="M55.1 60.7h-2c-2.7 0-4.8-2.2-4.8-4.8v-4.5c0-2.7 2.2-4.8 4.8-4.8h2c2.7 0 4.8 2.2 4.8 4.8v4.5c0 2.6-2.1 4.8-4.8 4.8zm-2-13.2c-2.1 0-3.8 1.7-3.8 3.8v4.5c0 2.1 1.7 3.8 3.8 3.8h2c2.1 0 3.8-1.7 3.8-3.8v-4.5c0-2.1-1.7-3.8-3.8-3.8h-2z"/><path fill="#E0EBFC" d="M10.9 60.2h-2c-2.4 0-4.3-1.9-4.3-4.3v-4.5c0-2.4 1.9-4.3 4.3-4.3h2c2.4 0 4.3 1.9 4.3 4.3v4.5c0 2.3-1.9 4.3-4.3 4.3z"/><path fill="#3762CC" d="M10.9 60.7h-2c-2.7 0-4.8-2.2-4.8-4.8v-4.5c0-2.7 2.2-4.8 4.8-4.8h2c2.7 0 4.8 2.2 4.8 4.8v4.5c0 2.6-2.1 4.8-4.8 4.8zm-2-13.2c-2.1 0-3.8 1.7-3.8 3.8v4.5c0 2.1 1.7 3.8 3.8 3.8h2c2.1 0 3.8-1.7 3.8-3.8v-4.5c0-2.1-1.7-3.8-3.8-3.8h-2z"/></symbol>
<symbol id="information-icon" viewBox="0 0 64 64"><title>information-icon icon</title><path d="M59.7 15.9C56.8 11 53 7.2 48.1 4.3 43.1 1.4 37.8 0 32 0S20.8 1.4 15.9 4.3C11 7.2 7.2 11 4.3 15.9 1.4 20.8 0 26.2 0 32s1.4 11.2 4.3 16.1C7.2 53 11 56.8 15.9 59.7 20.8 62.6 26.2 64 32 64s11.2-1.4 16.1-4.3 8.8-6.7 11.6-11.6S64 37.8 64 32c0-5.8-1.4-11.2-4.3-16.1zM26.7 8c0-.4.1-.7.4-1 .2-.2.6-.4 1-.4h8c.4 0 .7.1 1 .4.2.2.4.6.4 1v6.7c0 .4-.1.7-.4 1-.2.2-.6.4-1 .4h-8c-.4 0-.7-.1-1-.4-.2-.2-.4-.6-.4-1V8zm16 44c0 .4-.1.7-.4 1-.2.2-.6.4-1 .4H22.7c-.4 0-.7-.1-1-.4-.2-.2-.4-.6-.4-1v-6.7c0-.4.1-.7.4-1 .2-.2.6-.4 1-.4h4V30.6h-4c-.4 0-.7-.1-1-.4-.2-.2-.4-.6-.4-1v-6.7c0-.4.1-.7.4-1 .2-.2.6-.4 1-.4H36c.4 0 .7.1 1 .4.2.2.4.6.4 1V44h4c.4 0 .7.1 1 .4.2.2.4.6.4 1l-.1 6.6z"/></symbol>
<symbol id="pay-icon" viewBox="0 0 64 64"><title>pay-icon icon</title><path fill="#FF931E" d="M61.6 11.9L22.4 3.6c-1.7-.4-3.3.7-3.6 2.4l-.8 4.7 45.2 9.6.7-4.8c.4-1.7-.7-3.3-2.3-3.6z"/><path fill="#FFF" d="M45.1 21.3c-.5-1.7-2.2-2.6-3.8-2.2l-7.4 2.1-17.5-3.7-1.9 9.1L2.3 30c-1.7.4-2.6 2.2-2.2 3.8l6.8 24.5c.5 1.7 2.2 2.6 3.8 2.2l39-10.8c1.7-.5 2.6-2.2 2.2-3.8l-1.2-4.2 4.4.9c1.7.4 3.3-.7 3.6-2.4l2.8-13-15.7-3.3-.7-2.6zm4.5 12.4l1-4.6c.1-.7.8-1.1 1.5-1l4.6 1c.7.1 1.1.8 1 1.5l-1 4.6c-.1.7-.8 1.1-1.5 1l-4.6-1c-.7-.1-1.2-.8-1-1.5zM3 32.4l10.8-3 25.4-7.1 2.7-.8h.1c.2 0 .5.1.6.4l.3 1.2 1 3.6-40 11.2-1.3-4.8c-.1-.3.1-.6.4-.7zm46.4 14c.1.2 0 .3-.1.4l-.3.3-39 10.8h-.1c-.2 0-.5-.1-.6-.4l-4-14.3 40.1-11.1 2.4 8.8 1.6 5.5z"/><path fill="#FF931E" d="M16.4 47.4c-.2-.7-.9-1.1-1.6-.9l-4.5 1.3c-.7.2-1.1.9-.9 1.6l1.3 4.5c.2.7.9 1.1 1.6.9l4.5-1.3c.7-.2 1.1-.9.9-1.6l-1.3-4.5z"/></symbol>
<symbol id="promotions-icon" viewBox="0 0 64 64"><title>promotions-icon icon</title><path d="M32 0c-.9 0-1.7.7-1.7 1.7v6.8c-.3.1-.6.3-.9.4l-13.4 8c-1.5.9-2.5 2.5-2.5 4.3v37.9c0 2.7 2.3 5 5 5h26.9c2.8 0 5-2.2 5-5V21.2c0-1.7-.9-3.4-2.5-4.3l-13.4-8c-.3-.2-.6-.3-.9-.4V1.6C33.7.7 32.9 0 32 0zm14.3 19.7c.5.3.8.8.8 1.4V59c0 .9-.8 1.7-1.7 1.7H18.5c-.9 0-1.7-.8-1.7-1.7V21.1c0-.4.2-.9.5-1.2l.3-.3 12.6-7.5v5.6c-2 .7-3.4 2.5-3.4 4.7 0 2.7 2.3 5 5 5 1.4 0 2.7-.6 3.6-1.5.9-.9 1.5-2.1 1.5-3.5 0-2.2-1.4-4-3.4-4.7v-5.6l12.8 7.6zm-12.6 2.9c0 .9-.8 1.7-1.7 1.7s-1.7-.8-1.7-1.7c0-.5.2-.9.5-1.2.3-.3.7-.5 1.2-.5.9 0 1.7.8 1.7 1.7z"/><path d="M25.3 34.2c-2.8 0-5 2.2-5 5 0 2.7 2.3 5 5 5 2.8 0 5-2.2 5-5s-2.2-5-5-5zm1.7 4.9c0 .9-.8 1.7-1.7 1.7-.9 0-1.7-.7-1.7-1.7 0-.9.8-1.7 1.7-1.7.9.1 1.6.8 1.7 1.7zM38.7 44.1c-2.8 0-5.1 2.2-5 5 0 2.7 2.3 5 5 5 2.8 0 5.1-2.2 5-5 .1-2.8-2.2-5-5-5zm1.7 5c0 .9-.8 1.7-1.7 1.7-.9 0-1.7-.8-1.7-1.7 0-.9.8-1.7 1.7-1.7 1 0 1.7.8 1.7 1.7zM39.8 34.5c-.7-.6-1.8-.5-2.4.3L24 51.4c-.6.7-.5 1.8.3 2.3.7.5 1.6.5 2.2-.1l.1-.1L40 36.9c.6-.8.5-1.8-.2-2.4z"/></symbol>
<symbol id="reviews-icon" viewBox="0 0 64 64"><title>reviews-icon icon</title><path d="M57.6 0H6.4C2.9 0 0 2.9 0 6.4V64l12.8-12.8h44.8c3.5 0 6.4-2.9 6.4-6.4V6.4C64 2.9 61.1 0 57.6 0zM19.2 38.4h-6.4V32h6.4v6.4zm0-9.6h-6.4v-6.4h6.4v6.4zm0-9.6h-6.4v-6.4h6.4v6.4zm22.4 19.2h-16V32h16v6.4zm9.6-9.6H25.6v-6.4h25.6v6.4zm0-9.6H25.6v-6.4h25.6v6.4z"/></symbol>
<symbol id="search-icon" viewBox="0 0 64 64"><title>search-icon icon</title><path d="M63.2 59.5L47.8 44.1c3.8-4.6 6.1-10.6 6.1-17.1 0-14.9-12.1-27-27-27C12.1 0 0 12.1 0 27s12.1 27 27 27c6.5 0 12.4-2.3 17.1-6.1l15.4 15.4c1 1 2.7 1 3.8 0 1-1.1 1-2.8-.1-3.8zM27 48.6C15 48.6 5.4 38.9 5.4 27S15 5.4 27 5.4c11.9 0 21.6 9.7 21.6 21.6S38.9 48.6 27 48.6z"/></symbol>
<symbol id="security-icon" viewBox="0 0 64 64"><title>security-icon icon</title><path fill="#FF931E" d="M32 19.8c-6.9 0-12.5 5.5-12.5 12.2 0 6.7 5.6 12.2 12.5 12.2S44.5 38.7 44.5 32c0-6.7-5.6-12.2-12.5-12.2zm7.4 9.9l-9 8.7c-.4.4-.9.5-1.4.5-.5 0-1-.2-1.4-.5l-3.4-3.3c-.8-.7-.8-1.9 0-2.7.8-.7 2-.7 2.7 0l2.1 2 7.6-7.4c.8-.7 2-.7 2.7 0 .9.8.9 2 .1 2.7z"/><path fill="#FFF" d="M59.9 17.4c0-.7-.1-1.3-.1-2-.1-3.5-2.9-6.5-6.6-6.7-7.6-.4-13.4-2.8-18.4-7.6-1.6-1.5-4.1-1.5-5.7 0H29c-5 4.8-10.8 7.2-18.4 7.6-3.6.2-6.5 3.1-6.6 6.6 0 .7 0 1.4-.1 2v.1c-.1 7.5-.3 16.8 2.9 25.3 1.8 4.7 4.4 8.7 8 12 4 3.8 9.2 6.8 15.5 9 .2.1.4.1.6.2.5.1.8.1 1.1.1.3 0 .6 0 .9-.1.2 0 .4-.1.6-.2 6.3-2.2 11.5-5.2 15.5-9 3.5-3.3 6.2-7.4 8-12.1 3.3-8.4 3.1-17.7 2.9-25.2zM32 48c-9 0-16.4-7.2-16.4-16S22.9 16 32 16c9 0 16.4 7.2 16.4 16S41 48 32 48z"/></symbol>
<symbol id="service-icon" viewBox="0 0 64 64"><title>service-icon icon</title><path fill="#FFF" d="M40.8 37.4c-.1-.6-.7-1-1.3-1-1.9 0-3.5-1.1-4.2-2.8-.7-1.7-.3-3.8 1.1-5 .4-.4.5-1.1.1-1.5-1-1.2-2.1-2.3-3.2-3.3-.5-.4-1.2-.3-1.6.1-1.2 1.3-3.4 1.8-5.1 1.1-1.8-.7-2.9-2.5-2.8-4.4 0-.6-.4-1.1-1-1.2-1.5-.2-3.1-.2-4.6 0-.6.1-1 .6-1 1.2.1 1.9-1.1 3.6-2.8 4.3-1.7.7-3.9.2-5.1-1.2-.4-.4-1.1-.5-1.5-.1-1.2 1-2.3 2.1-3.3 3.3-.4.5-.3 1.2.1 1.5 1.4 1.3 1.9 3.3 1.1 5.1-.7 1.7-2.5 2.8-4.4 2.8-.7 0-1.1.4-1.2 1-.2 1.5-.2 3.1 0 4.6.1.6.8 1 1.3 1 1.8 0 3.5 1 4.2 2.8.7 1.7.3 3.8-1.1 5-.4.4-.5 1.1-.1 1.5.9 1.2 2 2.3 3.2 3.3.5.4 1.2.3 1.6-.1 1.2-1.3 3.4-1.8 5.1-1.1 1.8.7 2.9 2.5 2.8 4.4 0 .6.4 1.1 1 1.2.8.1 1.6.1 2.4.1.7 0 1.5 0 2.3-.1.6-.1 1-.6 1-1.2-.1-1.9 1.1-3.6 2.8-4.3 1.7-.7 3.9-.2 5.1 1.2.4.4 1.1.5 1.5.1 1.2-1 2.3-2 3.3-3.3.4-.5.3-1.2-.1-1.5-1.4-1.3-1.9-3.3-1.1-5.1.7-1.7 2.4-2.8 4.2-2.8h.3c.6 0 1.1-.4 1.2-1 0-1.5 0-3.1-.2-4.6zm-20.3 9.1c-3.8 0-6.8-3-6.8-6.8 0-3.7 3.1-6.8 6.8-6.8 3.8 0 6.8 3 6.8 6.8 0 3.7-3 6.8-6.8 6.8z"/><path fill="#FF931E" d="M63.9 15.3c0-.4-.5-.6-.8-.6-1.2 0-2.2-.7-2.6-1.7-.4-1.1-.2-2.3.7-3.1.3-.2.3-.7.1-1-.6-.8-1.3-1.4-2-2-.3-.2-.7-.2-1 .1-.8.7-2.2 1-3.3.6-1.1-.5-1.8-1.6-1.7-2.8 0-.4-.3-.7-.6-.7-1-.1-1.9-.1-2.9 0-.4 0-.6.4-.6.7 0 1.2-.7 2.3-1.8 2.7-1 .4-2.4.1-3.2-.7-.2-.3-.7-.3-1-.1-.8.6-1.5 1.3-2.1 2-.1.3-.1.8.2 1 .9.8 1.2 2.1.7 3.2-.4 1-1.5 1.7-2.8 1.7-.4 0-.7.3-.7.6-.1 1-.1 1.9 0 2.9 0 .4.5.6.8.6 1.1 0 2.2.7 2.6 1.7.4 1.1.2 2.3-.7 3.1-.3.2-.3.7-.1 1 .6.8 1.3 1.4 2 2 .3.2.7.2 1-.1.8-.8 2.1-1.2 3.2-.7s1.8 1.6 1.7 2.8c0 .4.3.7.6.7.5.1 1 .1 1.5.1s.9 0 1.4-.1c.4 0 .6-.4.6-.7 0-1.2.7-2.3 1.8-2.7 1.1-.4 2.4-.1 3.2.7.3.3.7.3 1 .1.8-.6 1.5-1.3 2.1-2 .2-.3.2-.7-.1-1-.9-.8-1.2-2.1-.7-3.2.4-1 1.5-1.7 2.6-1.7h.2c.4 0 .7-.3.8-.6 0-.9 0-1.8-.1-2.8zM51.2 21c-2.4 0-4.3-1.9-4.3-4.2s1.9-4.2 4.3-4.2 4.3 1.9 4.3 4.2-1.9 4.2-4.3 4.2z"/></symbol>
<symbol id="user-icon" viewBox="0 0 64 64"><title>user-icon icon</title><path d="M32 29.7c8.2 0 14.9-6.6 14.9-14.8S40.2 0 32 0 17.1 6.6 17.1 14.8 23.8 29.7 32 29.7zM32 37.1c-14.9 0-27 12-27 26.9h54c0-14.9-12.1-26.9-27-26.9z"/></symbol>
</svg>